<svg width="44" height="35" viewBox="0 0 44 35" fill="none" xmlns="http://www.w3.org/2000/svg">
<path d="M37.2479 3.61847C34.4434 2.33169 31.4361 1.38364 28.2918 0.840657C28.2346 0.830177 28.1774 0.856366 28.1479 0.908744C27.7611 1.59664 27.3327 2.49405 27.0327 3.19942C23.6507 2.69311 20.2862 2.69311 16.9736 3.19942C16.6735 2.47837 16.2296 1.59664 15.8411 0.908744C15.8116 0.858114 15.7544 0.831925 15.6971 0.840657C12.5545 1.38191 9.54719 2.32995 6.74105 3.61847C6.71675 3.62894 6.69593 3.64642 6.68211 3.6691C0.977885 12.1911 -0.584742 20.5036 0.18183 28.7131C0.185299 28.7533 0.207845 28.7917 0.239063 28.8161C4.00255 31.5799 7.64813 33.2578 11.226 34.37C11.2833 34.3874 11.3439 34.3665 11.3804 34.3193C12.2267 33.1635 12.9812 31.9449 13.628 30.6633C13.6662 30.5882 13.6298 30.4992 13.5518 30.4695C12.3551 30.0156 11.2156 29.4621 10.1195 28.8336C10.0328 28.7829 10.0259 28.6589 10.1056 28.5996C10.3363 28.4267 10.567 28.2469 10.7873 28.0653C10.8271 28.0322 10.8826 28.0252 10.9295 28.0461C18.1304 31.3338 25.9262 31.3338 33.0421 28.0461C33.0889 28.0234 33.1445 28.0304 33.186 28.0636C33.4064 28.2451 33.637 28.4267 33.8694 28.5996C33.9492 28.6589 33.944 28.7829 33.8573 28.8336C32.7612 29.4743 31.6217 30.0156 30.4233 30.4678C30.3452 30.4975 30.3105 30.5882 30.3487 30.6633C31.0095 31.9431 31.7639 33.1618 32.5946 34.3176C32.6293 34.3665 32.6918 34.3874 32.749 34.37C36.3442 33.2578 39.9898 31.5799 43.7533 28.8161C43.7863 28.7917 43.8071 28.755 43.8106 28.7148C44.728 19.2238 42.2739 10.9794 37.3051 3.67084C37.2929 3.64642 37.2722 3.62894 37.2479 3.61847ZM14.7034 23.7144C12.5354 23.7144 10.7491 21.724 10.7491 19.2797C10.7491 16.8353 12.5008 14.845 14.7034 14.845C16.9233 14.845 18.6923 16.8528 18.6576 19.2797C18.6576 21.724 16.9059 23.7144 14.7034 23.7144ZM29.3237 23.7144C27.1558 23.7144 25.3695 21.724 25.3695 19.2797C25.3695 16.8353 27.1211 14.845 29.3237 14.845C31.5437 14.845 33.3126 16.8528 33.278 19.2797C33.278 21.724 31.5437 23.7144 29.3237 23.7144Z" fill="#5865F2"/>
</svg>
