<svg width="44" height="44" viewBox="0 0 44 44" fill="none" xmlns="http://www.w3.org/2000/svg">
<path fill-rule="evenodd" clip-rule="evenodd" d="M22.0182 0C9.84271 0 0 9.91527 0 22.1818C0 31.9871 6.30656 40.2871 15.0554 43.2247C16.1493 43.4455 16.5499 42.7474 16.5499 42.1602C16.5499 41.6459 16.5139 39.8833 16.5139 38.0467C10.3889 39.369 9.11348 35.4025 9.11348 35.4025C8.12917 32.8317 6.67072 32.171 6.67072 32.171C4.66603 30.8121 6.81675 30.8121 6.81675 30.8121C9.04047 30.9591 10.2073 33.0891 10.2073 33.0891C12.1755 36.4674 15.347 35.5129 16.6229 34.9252C16.805 33.4929 17.3887 32.5013 18.0084 31.9506C13.1233 31.4364 7.98359 29.5268 7.98359 21.0064C7.98359 18.5826 8.85794 16.5995 10.2434 15.0572C10.0248 14.5065 9.25906 12.2291 10.4624 9.18109C10.4624 9.18109 12.3215 8.59338 16.5134 11.458C18.3081 10.9724 20.159 10.7254 22.0182 10.7234C23.8773 10.7234 25.7725 10.9807 27.5225 11.458C31.7149 8.59338 33.574 9.18109 33.574 9.18109C34.7774 12.2291 34.0112 14.5065 33.7926 15.0572C35.2145 16.5995 36.0528 18.5826 36.0528 21.0064C36.0528 29.5268 30.9131 31.3994 25.9915 31.9506C26.7938 32.6483 27.486 33.9702 27.486 36.0636C27.486 39.0382 27.45 41.4255 27.45 42.1597C27.45 42.7474 27.8511 43.4455 28.9445 43.2252C37.6933 40.2866 43.9999 31.9871 43.9999 22.1818C44.036 9.91527 34.1572 0 22.0182 0Z" fill="#E9E9E9"/>
</svg>
