<svg width="47" height="44" viewBox="0 0 47 44" fill="none" xmlns="http://www.w3.org/2000/svg">
<g opacity="0.8">
<path d="M39.7875 7.61859C36.7919 6.33181 33.5795 5.38376 30.2208 4.84078C30.1596 4.8303 30.0985 4.85649 30.067 4.90887C29.6539 5.59676 29.1963 6.49417 28.8758 7.19954C25.2633 6.69323 21.6693 6.69323 18.1309 7.19954C17.8104 6.4785 17.3361 5.59676 16.9211 4.90887C16.8896 4.85824 16.8285 4.83205 16.7673 4.84078C13.4105 5.38203 10.1981 6.33007 7.20066 7.61859C7.17472 7.62907 7.15247 7.64654 7.13771 7.66922C1.04456 16.1912 -0.624611 24.5037 0.194228 32.7132C0.197933 32.7534 0.222016 32.7918 0.255363 32.8162C4.27545 35.58 8.16959 37.2579 11.9914 38.3701C12.0526 38.3876 12.1174 38.3666 12.1563 38.3194C13.0604 37.1637 13.8663 35.945 14.5572 34.6634C14.598 34.5884 14.5591 34.4993 14.4757 34.4696C13.1975 34.0157 11.9803 33.4622 10.8095 32.8337C10.7169 32.7831 10.7094 32.6591 10.7946 32.5997C11.041 32.4268 11.2875 32.247 11.5227 32.0654C11.5653 32.0323 11.6246 32.0253 11.6747 32.0462C19.3665 35.3339 27.6939 35.3339 35.2949 32.0462C35.345 32.0235 35.4043 32.0305 35.4487 32.0637C35.6841 32.2453 35.9304 32.4268 36.1787 32.5997C36.2639 32.6591 36.2583 32.7831 36.1657 32.8337C34.9949 33.4744 33.7777 34.0157 32.4976 34.4679C32.4142 34.4976 32.3772 34.5884 32.418 34.6634C33.1237 35.9432 33.9296 37.1619 34.817 38.3177C34.8541 38.3666 34.9207 38.3876 34.9819 38.3701C38.8223 37.2579 42.7164 35.58 46.7365 32.8162C46.7717 32.7918 46.7939 32.7551 46.7976 32.715C47.7776 23.2239 45.1562 14.9795 39.8486 7.67096C39.8356 7.64654 39.8134 7.62907 39.7875 7.61859ZM15.7059 27.7145C13.3901 27.7145 11.482 25.7242 11.482 23.2798C11.482 20.8354 13.3531 18.8451 15.7059 18.8451C18.0771 18.8451 19.9668 20.8529 19.9297 23.2798C19.9297 25.7242 18.0586 27.7145 15.7059 27.7145ZM31.323 27.7145C29.0073 27.7145 27.0992 25.7242 27.0992 23.2798C27.0992 20.8354 28.9703 18.8451 31.323 18.8451C33.6944 18.8451 35.584 20.8529 35.547 23.2798C35.547 25.7242 33.6944 27.7145 31.323 27.7145Z" fill="white"/>
</g>
</svg>
