<svg width="48" height="48" viewBox="0 0 48 48" fill="none" xmlns="http://www.w3.org/2000/svg">
<g opacity="0.8" clip-path="url(#clip0_4_804)">
<path fill-rule="evenodd" clip-rule="evenodd" d="M23.9285 0C10.6967 0 0 11 0 24.6085C0 35.4865 6.85371 44.6945 16.3616 47.9535C17.5504 48.1985 17.9858 47.424 17.9858 46.7725C17.9858 46.202 17.9466 44.2465 17.9466 42.209C11.2903 43.676 9.90416 39.2755 9.90416 39.2755C8.83445 36.4235 7.24947 35.6905 7.24947 35.6905C5.07086 34.183 7.40816 34.183 7.40816 34.183C9.82482 34.346 11.0929 36.709 11.0929 36.709C13.2318 40.457 16.6785 39.398 18.0651 38.746C18.263 37.157 18.8973 36.057 19.5708 35.446C14.2619 34.8755 8.67625 32.757 8.67625 23.3045C8.67625 20.6155 9.62645 18.4155 11.1321 16.7045C10.8945 16.0935 10.0624 13.567 11.3701 10.1855C11.3701 10.1855 13.3905 9.5335 17.9461 12.7115C19.8965 12.1728 21.908 11.8988 23.9285 11.8965C25.9489 11.8965 28.0085 12.182 29.9104 12.7115C34.4664 9.5335 36.4869 10.1855 36.4869 10.1855C37.7946 13.567 36.962 16.0935 36.7244 16.7045C38.2697 18.4155 39.1807 20.6155 39.1807 23.3045C39.1807 32.757 33.5951 34.8345 28.2465 35.446C29.1184 36.22 29.8707 37.6865 29.8707 40.009C29.8707 43.309 29.8315 45.9575 29.8315 46.772C29.8315 47.424 30.2674 48.1985 31.4557 47.954C40.9636 44.694 47.8173 35.4865 47.8173 24.6085C47.8565 11 37.1207 0 23.9285 0Z" fill="white"/>
</g>
<defs>
<clipPath id="clip0_4_804">
<rect width="48" height="48" fill="white"/>
</clipPath>
</defs>
</svg>
