<svg width="12" height="20" viewBox="0 0 12 20" fill="none" xmlns="http://www.w3.org/2000/svg">
<mask id="path-1-inside-1_29_197" fill="white">
<path d="M-4.76837e-07 20L12 10.3264L1.27162e-06 -1.07151e-06"/>
</mask>
<path d="M-1.25521 18.4429C-2.11515 19.1362 -2.2503 20.3953 -1.55707 21.2552C-0.863837 22.1151 0.39526 22.2503 1.2552 21.5571L-1.25521 18.4429ZM12 10.3264L13.2552 11.8835C13.7174 11.5108 13.9902 10.9521 13.9997 10.3585C14.0093 9.76486 13.7546 9.19768 13.3045 8.81042L12 10.3264ZM1.30454 -1.51597C0.467296 -2.23645 -0.795491 -2.14179 -1.51597 -1.30454C-2.23645 -0.467296 -2.14179 0.795491 -1.30454 1.51597L1.30454 -1.51597ZM1.2552 21.5571L13.2552 11.8835L10.7448 8.76932L-1.25521 18.4429L1.2552 21.5571ZM13.3045 8.81042L1.30454 -1.51597L-1.30454 1.51597L10.6955 11.8424L13.3045 8.81042Z" fill="#757474" mask="url(#path-1-inside-1_29_197)"/>
</svg>
