<svg width="200" height="59" viewBox="0 0 200 59" fill="none" xmlns="http://www.w3.org/2000/svg">
<g filter="url(#filter0_d_29_177)">
<path d="M24.36 39.52C22.4667 39.52 20.6867 39.1467 19.02 38.4C17.3533 37.64 15.8867 36.5933 14.62 35.26C13.3667 33.9267 12.38 32.3867 11.66 30.64C10.9533 28.88 10.6 27 10.6 25C10.6 22.9867 10.9533 21.1067 11.66 19.36C12.38 17.6 13.3667 16.06 14.62 14.74C15.8867 13.4067 17.3533 12.3667 19.02 11.62C20.6867 10.86 22.4667 10.48 24.36 10.48C26.6267 10.48 28.7133 11.0067 30.62 12.06C32.5267 13.1 34.1067 14.4933 35.36 16.24L31 18.58C30.2133 17.6067 29.2333 16.8267 28.06 16.24C26.9 15.6533 25.6667 15.36 24.36 15.36C23.1333 15.36 21.98 15.6133 20.9 16.12C19.82 16.6133 18.8733 17.3067 18.06 18.2C17.2467 19.08 16.6133 20.1067 16.16 21.28C15.7067 22.44 15.48 23.68 15.48 25C15.48 26.3333 15.7067 27.58 16.16 28.74C16.6267 29.9 17.2667 30.9267 18.08 31.82C18.8933 32.7 19.8333 33.3933 20.9 33.9C21.98 34.3933 23.1333 34.64 24.36 34.64C25.6933 34.64 26.9333 34.3467 28.08 33.76C29.24 33.16 30.2133 32.3733 31 31.4L35.36 33.76C34.1067 35.4933 32.5267 36.8867 30.62 37.94C28.7133 38.9933 26.6267 39.52 24.36 39.52ZM46.8797 39.52C45.0397 39.52 43.3597 39.0467 41.8397 38.1C40.333 37.1533 39.1264 35.8867 38.2197 34.3C37.3264 32.7 36.8797 30.9333 36.8797 29C36.8797 27.5333 37.1397 26.1667 37.6597 24.9C38.1797 23.62 38.893 22.5 39.7997 21.54C40.7197 20.5667 41.7864 19.8067 42.9997 19.26C44.213 18.7133 45.5064 18.44 46.8797 18.44C48.7197 18.44 50.393 18.9133 51.8997 19.86C53.4197 20.8067 54.6264 22.08 55.5197 23.68C56.4264 25.28 56.8797 27.0533 56.8797 29C56.8797 30.4533 56.6197 31.8133 56.0997 33.08C55.5797 34.3467 54.8597 35.4667 53.9397 36.44C53.033 37.4 51.973 38.1533 50.7597 38.7C49.5597 39.2467 48.2664 39.52 46.8797 39.52ZM46.8797 34.64C47.853 34.64 48.7264 34.38 49.4997 33.86C50.273 33.34 50.8797 32.6533 51.3197 31.8C51.773 30.9467 51.9997 30.0133 51.9997 29C51.9997 27.96 51.7664 27.0133 51.2997 26.16C50.8464 25.2933 50.2264 24.6067 49.4397 24.1C48.6664 23.58 47.813 23.32 46.8797 23.32C45.9197 23.32 45.053 23.58 44.2797 24.1C43.5064 24.62 42.893 25.3133 42.4397 26.18C41.9864 27.0467 41.7597 27.9867 41.7597 29C41.7597 30.0533 41.993 31.0067 42.4597 31.86C42.9264 32.7133 43.5464 33.3933 44.3197 33.9C45.1064 34.3933 45.9597 34.64 46.8797 34.64ZM56.3453 49V44.12C57.1053 44.12 57.792 43.94 58.4053 43.58C59.0186 43.2333 59.5053 42.7533 59.8653 42.14C60.2253 41.54 60.4053 40.8667 60.4053 40.12V19H65.2853V40.12C65.2853 41.7467 64.8853 43.2333 64.0853 44.58C63.2986 45.9267 62.2253 47 60.8653 47.8C59.5186 48.6 58.012 49 56.3453 49ZM62.8853 16.42C62.1653 16.42 61.5586 16.1867 61.0653 15.72C60.572 15.24 60.3253 14.64 60.3253 13.92C60.3253 13.2133 60.572 12.62 61.0653 12.14C61.5586 11.66 62.1586 11.42 62.8653 11.42C63.572 11.42 64.1653 11.66 64.6453 12.14C65.1386 12.62 65.3853 13.2133 65.3853 13.92C65.3853 14.64 65.1453 15.24 64.6653 15.72C64.1853 16.1867 63.592 16.42 62.8853 16.42ZM78.4031 39.52C76.5631 39.52 74.8831 39.0467 73.3631 38.1C71.8565 37.1533 70.6498 35.8867 69.7431 34.3C68.8498 32.7 68.4031 30.9333 68.4031 29C68.4031 27.5333 68.6631 26.1667 69.1831 24.9C69.7031 23.62 70.4165 22.5 71.3231 21.54C72.2431 20.5667 73.3098 19.8067 74.5231 19.26C75.7365 18.7133 77.0298 18.44 78.4031 18.44C80.2431 18.44 81.9165 18.9133 83.4231 19.86C84.9431 20.8067 86.1498 22.08 87.0431 23.68C87.9498 25.28 88.4031 27.0533 88.4031 29C88.4031 30.4533 88.1431 31.8133 87.6231 33.08C87.1031 34.3467 86.3831 35.4667 85.4631 36.44C84.5565 37.4 83.4965 38.1533 82.2831 38.7C81.0831 39.2467 79.7898 39.52 78.4031 39.52ZM78.4031 34.64C79.3765 34.64 80.2498 34.38 81.0231 33.86C81.7965 33.34 82.4031 32.6533 82.8431 31.8C83.2965 30.9467 83.5231 30.0133 83.5231 29C83.5231 27.96 83.2898 27.0133 82.8231 26.16C82.3698 25.2933 81.7498 24.6067 80.9631 24.1C80.1898 23.58 79.3365 23.32 78.4031 23.32C77.4431 23.32 76.5765 23.58 75.8031 24.1C75.0298 24.62 74.4165 25.3133 73.9631 26.18C73.5098 27.0467 73.2831 27.9867 73.2831 29C73.2831 30.0533 73.5165 31.0067 73.9831 31.86C74.4498 32.7133 75.0698 33.3933 75.8431 33.9C76.6298 34.3933 77.4831 34.64 78.4031 34.64ZM90.2875 31.6V19H95.1675V30.32C95.1675 31.1067 95.3608 31.8267 95.7475 32.48C96.1342 33.12 96.6475 33.6333 97.2875 34.02C97.9408 34.3933 98.6542 34.58 99.4275 34.58C100.228 34.58 100.948 34.3933 101.588 34.02C102.228 33.6333 102.741 33.12 103.128 32.48C103.514 31.8267 103.708 31.1067 103.708 30.32V19H108.588L108.608 39H103.728L103.708 37.18C103.014 37.9 102.194 38.4733 101.248 38.9C100.301 39.3133 99.2875 39.52 98.2075 39.52C96.7542 39.52 95.4275 39.1667 94.2275 38.46C93.0275 37.74 92.0675 36.7867 91.3475 35.6C90.6408 34.4 90.2875 33.0667 90.2875 31.6ZM112.631 39L112.611 19H117.491L117.511 20.78C118.191 20.06 119.004 19.4933 119.951 19.08C120.898 18.6533 121.918 18.44 123.011 18.44C123.744 18.44 124.478 18.5467 125.211 18.76L123.291 23.68C122.784 23.48 122.278 23.38 121.771 23.38C120.984 23.38 120.264 23.5733 119.611 23.96C118.971 24.3333 118.458 24.8467 118.071 25.5C117.698 26.14 117.511 26.8533 117.511 27.64V39H112.631ZM145.853 26.36V39H140.973V27.64C140.973 26.8533 140.779 26.14 140.393 25.5C140.006 24.8467 139.486 24.3333 138.833 23.96C138.193 23.5733 137.479 23.38 136.693 23.38C135.906 23.38 135.186 23.5733 134.533 23.96C133.893 24.3333 133.379 24.8467 132.993 25.5C132.619 26.14 132.433 26.8533 132.433 27.64V39H127.553L127.533 19H132.413L132.433 20.78C133.113 20.06 133.926 19.4933 134.873 19.08C135.819 18.6533 136.839 18.44 137.933 18.44C139.386 18.44 140.713 18.8 141.913 19.52C143.113 20.2267 144.066 21.18 144.773 22.38C145.493 23.5667 145.853 24.8933 145.853 26.36ZM158.247 39.52C156.407 39.52 154.727 39.0467 153.207 38.1C151.7 37.1533 150.494 35.88 149.587 34.28C148.694 32.68 148.247 30.9133 148.247 28.98C148.247 27.5267 148.507 26.1667 149.027 24.9C149.547 23.62 150.26 22.5 151.167 21.54C152.087 20.5667 153.154 19.8067 154.367 19.26C155.58 18.7133 156.874 18.44 158.247 18.44C159.807 18.44 161.234 18.7733 162.527 19.44C163.834 20.0933 164.94 20.9933 165.847 22.14C166.754 23.2867 167.414 24.5933 167.827 26.06C168.24 27.5267 168.334 29.06 168.107 30.66H153.487C153.674 31.4067 153.98 32.08 154.407 32.68C154.834 33.2667 155.374 33.74 156.027 34.1C156.68 34.4467 157.42 34.6267 158.247 34.64C159.1 34.6533 159.874 34.4533 160.567 34.04C161.274 33.6133 161.86 33.04 162.327 32.32L167.307 33.48C166.494 35.2533 165.28 36.7067 163.667 37.84C162.054 38.96 160.247 39.52 158.247 39.52ZM153.327 27H163.167C163.02 26.2 162.707 25.48 162.227 24.84C161.76 24.1867 161.18 23.6667 160.487 23.28C159.794 22.8933 159.047 22.7 158.247 22.7C157.447 22.7 156.707 22.8933 156.027 23.28C155.347 23.6533 154.767 24.1667 154.287 24.82C153.82 25.46 153.5 26.1867 153.327 27ZM183.831 19H189.011L178.071 49H172.891L176.511 39L169.311 19H174.651L178.951 32.32L183.831 19Z" fill="white"/>
</g>
<defs>
<filter id="filter0_d_29_177" x="0.600098" y="0.479996" width="198.411" height="58.52" filterUnits="userSpaceOnUse" color-interpolation-filters="sRGB">
<feFlood flood-opacity="0" result="BackgroundImageFix"/>
<feColorMatrix in="SourceAlpha" type="matrix" values="0 0 0 0 0 0 0 0 0 0 0 0 0 0 0 0 0 0 127 0" result="hardAlpha"/>
<feOffset/>
<feGaussianBlur stdDeviation="5"/>
<feComposite in2="hardAlpha" operator="out"/>
<feColorMatrix type="matrix" values="0 0 0 0 0 0 0 0 0 0 0 0 0 0 0 0 0 0 0.25 0"/>
<feBlend mode="normal" in2="BackgroundImageFix" result="effect1_dropShadow_29_177"/>
<feBlend mode="normal" in="SourceGraphic" in2="effect1_dropShadow_29_177" result="shape"/>
</filter>
</defs>
</svg>
