<svg width="36" height="8" viewBox="0 0 36 8" fill="none" xmlns="http://www.w3.org/2000/svg">
<path d="M17.6667 5.91667C18.7482 5.91667 19.625 5.03989 19.625 3.95833C19.625 2.87678 18.7482 2 17.6667 2C16.5851 2 15.7083 2.87678 15.7083 3.95833C15.7083 5.03989 16.5851 5.91667 17.6667 5.91667Z" stroke="#757474" stroke-width="3.91667" stroke-linecap="round" stroke-linejoin="round"/>
<path d="M31.375 5.91667C32.4566 5.91667 33.3333 5.03989 33.3333 3.95833C33.3333 2.87678 32.4566 2 31.375 2C30.2934 2 29.4167 2.87678 29.4167 3.95833C29.4167 5.03989 30.2934 5.91667 31.375 5.91667Z" stroke="#757474" stroke-width="3.91667" stroke-linecap="round" stroke-linejoin="round"/>
<path d="M3.95833 5.91667C5.03989 5.91667 5.91667 5.03989 5.91667 3.95833C5.91667 2.87678 5.03989 2 3.95833 2C2.87678 2 2 2.87678 2 3.95833C2 5.03989 2.87678 5.91667 3.95833 5.91667Z" stroke="#757474" stroke-width="3.91667" stroke-linecap="round" stroke-linejoin="round"/>
</svg>
