<svg width="20" height="12" viewBox="0 0 20 12" fill="none" xmlns="http://www.w3.org/2000/svg">
<mask id="path-1-inside-1_29_196" fill="white">
<path d="M1.43099e-07 -4.76837e-07L9.67361 12L20 -2.3834e-07"/>
</mask>
<path d="M1.55707 -1.25521C0.863837 -2.11515 -0.395261 -2.2503 -1.25521 -1.55707C-2.11515 -0.863837 -2.2503 0.39526 -1.55707 1.25521L1.55707 -1.25521ZM9.67361 12L8.11654 13.2552C8.48916 13.7174 9.04787 13.9902 9.64151 13.9997C10.2351 14.0093 10.8023 13.7546 11.1896 13.3045L9.67361 12ZM21.516 1.30454C22.2365 0.467294 22.1418 -0.795493 21.3045 -1.51597C20.4673 -2.23645 19.2045 -2.14179 18.484 -1.30454L21.516 1.30454ZM-1.55707 1.25521L8.11654 13.2552L11.2307 10.7448L1.55707 -1.25521L-1.55707 1.25521ZM11.1896 13.3045L21.516 1.30454L18.484 -1.30454L8.15764 10.6955L11.1896 13.3045Z" fill="#757474" mask="url(#path-1-inside-1_29_196)"/>
</svg>
