<svg width="12" height="20" viewBox="0 0 12 20" fill="none" xmlns="http://www.w3.org/2000/svg">
<mask id="path-1-inside-1_29_187" fill="white">
<path d="M12 0L0 9.67361L12 20"/>
</mask>
<path d="M13.2552 1.55707C14.1152 0.863837 14.2503 -0.395261 13.5571 -1.25521C12.8638 -2.11515 11.6047 -2.2503 10.7448 -1.55707L13.2552 1.55707ZM0 9.67361L-1.25521 8.11654C-1.71743 8.48916 -1.99021 9.04787 -1.99974 9.64151C-2.00927 10.2351 -1.75457 10.8023 -1.30454 11.1896L0 9.67361ZM10.6955 21.516C11.5327 22.2365 12.7955 22.1418 13.516 21.3045C14.2365 20.4673 14.1418 19.2045 13.3045 18.484L10.6955 21.516ZM10.7448 -1.55707L-1.25521 8.11654L1.25521 11.2307L13.2552 1.55707L10.7448 -1.55707ZM-1.30454 11.1896L10.6955 21.516L13.3045 18.484L1.30454 8.15764L-1.30454 11.1896Z" fill="#757474" mask="url(#path-1-inside-1_29_187)"/>
</svg>
