<svg width="20" height="20" viewBox="0 0 20 20" fill="none" xmlns="http://www.w3.org/2000/svg">
<path fill-rule="evenodd" clip-rule="evenodd" d="M19.6215 2.20581C20.1262 1.7012 20.1262 0.883063 19.6215 0.378456C19.117 -0.126152 18.2988 -0.126152 17.7943 0.378456L10 8.17267L2.20583 0.378456C1.7012 -0.126152 0.883062 -0.126152 0.378455 0.378456C-0.126152 0.883063 -0.126152 1.7012 0.378455 2.20581L8.17266 10L0.378455 17.7942C-0.126152 18.2989 -0.126152 19.1169 0.378455 19.6216C0.883062 20.1261 1.7012 20.1261 2.20583 19.6216L10 11.8274L17.7943 19.6216C18.2988 20.1261 19.117 20.1261 19.6215 19.6216C20.1262 19.1169 20.1262 18.2989 19.6215 17.7942L11.8274 10L19.6215 2.20581Z" fill="white"/>
</svg>
