<svg width="66" height="57" viewBox="0 0 66 57" fill="none" xmlns="http://www.w3.org/2000/svg">
<g filter="url(#filter0_d_29_184)">
<path d="M48.9409 13.0671C46.0091 11.6475 42.8651 10.6016 39.5778 10.0025C39.5179 9.99095 39.4581 10.0198 39.4273 10.0776C39.023 10.8365 38.5751 11.8266 38.2614 12.6048C34.7258 12.0462 31.2083 12.0462 27.7451 12.6048C27.4314 11.8093 26.9673 10.8365 26.5611 10.0776C26.5303 10.0218 26.4705 9.99288 26.4106 10.0025C23.1252 10.5996 19.9812 11.6456 17.0475 13.0671C17.0221 13.0787 17.0003 13.0979 16.9858 13.123C11.0223 22.5247 9.38868 31.6954 10.1901 40.7524C10.1937 40.7967 10.2173 40.8391 10.2499 40.866C14.1845 43.9152 17.9958 45.7663 21.7363 46.9933C21.7961 47.0125 21.8596 46.9894 21.8977 46.9374C22.7825 45.6623 23.5712 44.3178 24.2475 42.9039C24.2874 42.8211 24.2493 42.7229 24.1677 42.6901C22.9167 42.1893 21.7254 41.5787 20.5795 40.8853C20.4888 40.8295 20.4816 40.6927 20.565 40.6272C20.8061 40.4365 21.0473 40.2381 21.2776 40.0377C21.3192 40.0012 21.3773 39.9934 21.4263 40.0165C28.9545 43.6436 37.1046 43.6436 44.544 40.0165C44.593 39.9915 44.651 39.9992 44.6945 40.0358C44.9248 40.2362 45.166 40.4365 45.4089 40.6272C45.4923 40.6927 45.4869 40.8295 45.3962 40.8853C44.2503 41.5922 43.059 42.1893 41.8061 42.6882C41.7246 42.721 41.6883 42.8211 41.7282 42.9039C42.419 44.3158 43.2077 45.6603 44.0762 46.9355C44.1125 46.9894 44.1777 47.0125 44.2376 46.9933C47.9963 45.7663 51.8075 43.9152 55.7421 40.866C55.7765 40.8391 55.7983 40.7986 55.8019 40.7543C56.7611 30.2835 54.1954 21.188 49.0007 13.1249C48.988 13.0979 48.9663 13.0787 48.9409 13.0671ZM25.3717 35.2376C23.1052 35.2376 21.2377 33.0418 21.2377 30.3451C21.2377 27.6484 23.069 25.4526 25.3717 25.4526C27.6925 25.4526 29.542 27.6677 29.5057 30.3451C29.5057 33.0418 27.6744 35.2376 25.3717 35.2376ZM40.6566 35.2376C38.3902 35.2376 36.5226 33.0418 36.5226 30.3451C36.5226 27.6484 38.3539 25.4526 40.6566 25.4526C42.9775 25.4526 44.8269 27.6677 44.7906 30.3451C44.7906 33.0418 42.9775 35.2376 40.6566 35.2376Z" fill="#5865F2"/>
</g>
<defs>
<filter id="filter0_d_29_184" x="0" y="0" width="66" height="57" filterUnits="userSpaceOnUse" color-interpolation-filters="sRGB">
<feFlood flood-opacity="0" result="BackgroundImageFix"/>
<feColorMatrix in="SourceAlpha" type="matrix" values="0 0 0 0 0 0 0 0 0 0 0 0 0 0 0 0 0 0 127 0" result="hardAlpha"/>
<feOffset/>
<feGaussianBlur stdDeviation="5"/>
<feComposite in2="hardAlpha" operator="out"/>
<feColorMatrix type="matrix" values="0 0 0 0 0 0 0 0 0 0 0 0 0 0 0 0 0 0 0.25 0"/>
<feBlend mode="normal" in2="BackgroundImageFix" result="effect1_dropShadow_29_184"/>
<feBlend mode="normal" in="SourceGraphic" in2="effect1_dropShadow_29_184" result="shape"/>
</filter>
</defs>
</svg>
