<svg width="60" height="60" viewBox="0 0 60 60" fill="none" xmlns="http://www.w3.org/2000/svg">
<g filter="url(#filter0_d_29_183)">
<path fill-rule="evenodd" clip-rule="evenodd" d="M30.0165 10C18.9479 10 10 19.1666 10 30.507C10 39.572 15.7332 47.2453 23.6868 49.9611C24.6812 50.1653 25.0454 49.5198 25.0454 48.9769C25.0454 48.5015 25.0126 46.8719 25.0126 45.174C19.4445 46.3965 18.285 42.7295 18.285 42.7295C17.3902 40.3528 16.0643 39.742 16.0643 39.742C14.2418 38.4857 16.197 38.4857 16.197 38.4857C18.2186 38.6215 19.2794 40.5907 19.2794 40.5907C21.0686 43.714 23.9518 42.8315 25.1118 42.2882C25.2773 40.964 25.8079 40.0474 26.3713 39.5382C21.9303 39.0628 17.2578 37.2974 17.2578 29.4203C17.2578 27.1795 18.0527 25.3462 19.3122 23.9204C19.1134 23.4112 18.4173 21.3058 19.5113 18.4879C19.5113 18.4879 21.2014 17.9446 25.0122 20.5929C26.6438 20.144 28.3263 19.9156 30.0165 19.9137C31.7067 19.9137 33.4295 20.1516 35.0205 20.5929C38.8317 17.9446 40.5218 18.4879 40.5218 18.4879C41.6158 21.3058 40.9192 23.4112 40.7205 23.9204C42.0132 25.3462 42.7753 27.1795 42.7753 29.4203C42.7753 37.2974 38.1028 39.0286 33.6287 39.5382C34.358 40.1832 34.9873 41.4053 34.9873 43.3407C34.9873 46.0907 34.9545 48.2978 34.9545 48.9765C34.9545 49.5198 35.3192 50.1653 36.3132 49.9615C44.2667 47.2448 49.9999 39.572 49.9999 30.507C50.0327 19.1666 41.052 10 30.0165 10Z" fill="#E9E9E9"/>
</g>
<defs>
<filter id="filter0_d_29_183" x="0" y="0" width="60" height="60" filterUnits="userSpaceOnUse" color-interpolation-filters="sRGB">
<feFlood flood-opacity="0" result="BackgroundImageFix"/>
<feColorMatrix in="SourceAlpha" type="matrix" values="0 0 0 0 0 0 0 0 0 0 0 0 0 0 0 0 0 0 127 0" result="hardAlpha"/>
<feOffset/>
<feGaussianBlur stdDeviation="5"/>
<feComposite in2="hardAlpha" operator="out"/>
<feColorMatrix type="matrix" values="0 0 0 0 0 0 0 0 0 0 0 0 0 0 0 0 0 0 0.25 0"/>
<feBlend mode="normal" in2="BackgroundImageFix" result="effect1_dropShadow_29_183"/>
<feBlend mode="normal" in="SourceGraphic" in2="effect1_dropShadow_29_183" result="shape"/>
</filter>
</defs>
</svg>
