<svg width="31" height="26" viewBox="0 0 31 26" fill="none" xmlns="http://www.w3.org/2000/svg">
<path d="M30.4981 13.072L1.37321 0.0943215C1.23093 0.0296076 1.07097 -0.00283734 0.909145 0.000194587C0.747325 0.00322651 0.58925 0.0416304 0.450552 0.111609C0.311854 0.181587 0.197337 0.280716 0.118324 0.399194C0.039311 0.517672 -0.00146087 0.651395 3.99878e-05 0.78714V10.588C-0.00161021 10.7796 0.0809001 10.965 0.231831 11.1088C0.382762 11.2527 0.591549 11.3449 0.818365 11.3679L24.1127 13.8103L0.857111 15.4338C0.623319 15.4492 0.405099 15.5381 0.246165 15.6828C0.0872312 15.8274 -0.000680531 16.017 3.99878e-05 16.2137V25.2139C-0.00121941 25.3462 0.0376858 25.4766 0.113094 25.5928C0.188503 25.7091 0.297934 25.8073 0.431091 25.8783C0.564247 25.9493 0.716749 25.9907 0.874244 25.9986C1.03174 26.0065 1.18905 25.9807 1.33137 25.9236L30.4578 14.4732C30.6162 14.4123 30.7509 14.3153 30.8467 14.1933C30.9425 14.0713 30.9955 13.9292 30.9997 13.7832C31.0039 13.6371 30.9591 13.493 30.8705 13.3673C30.7818 13.2416 30.6528 13.1392 30.4981 13.072Z" fill="white"/>
<path d="M30.4981 13.072L1.37321 0.0943215C1.23093 0.0296076 1.07097 -0.00283734 0.909145 0.000194587C0.747325 0.00322651 0.58925 0.0416304 0.450552 0.111609C0.311854 0.181587 0.197337 0.280716 0.118324 0.399194C0.039311 0.517672 -0.00146087 0.651395 3.99878e-05 0.78714V10.588C-0.00161021 10.7796 0.0809001 10.965 0.231831 11.1088C0.382762 11.2527 0.591549 11.3449 0.818365 11.3679L24.1127 13.8103L0.857111 15.4338C0.623319 15.4492 0.405099 15.5381 0.246165 15.6828C0.0872312 15.8274 -0.000680531 16.017 3.99878e-05 16.2137V25.2139C-0.00121941 25.3462 0.0376858 25.4766 0.113094 25.5928C0.188503 25.7091 0.297934 25.8073 0.431091 25.8783C0.564247 25.9493 0.716749 25.9907 0.874244 25.9986C1.03174 26.0065 1.18905 25.9807 1.33137 25.9236L30.4578 14.4732C30.6162 14.4123 30.7509 14.3153 30.8467 14.1933C30.9425 14.0713 30.9955 13.9292 30.9997 13.7832C31.0039 13.6371 30.9591 13.493 30.8705 13.3673C30.7818 13.2416 30.6528 13.1392 30.4981 13.072Z" stroke="white"/>
</svg>
